<svg xmlns="http://www.w3.org/2000/svg" xmlns:xlink="http://www.w3.org/1999/xlink" viewBox="0 0 32 32" id="Menu">
  <defs>
    <linearGradient id="a">
      <stop offset="0" stop-color="#ea4335" class="stopColorff1679 svgShape"></stop>
      <stop offset="1" stop-color="#fbbc05" class="stopColorff770b svgShape"></stop>
    </linearGradient>
    <linearGradient xlink:href="#a" id="b" x1="992.183" x2="1019.298" y1="516.081" y2="545.959" gradientTransform="translate(-1015.137 491.682)scale(1.02524)" gradientUnits="userSpaceOnUse"></linearGradient>
  </defs>
  <g transform="translate(0 -1020.362)" fill="#34a853" class="color000000 svgShape">
    <rect width="32" height="32" y="1020.362" fill="url(#b)" rx="6.763" ry="6.763"></rect>
    <path fill="#4285f4" fill-rule="evenodd" d="M13.459 1033.363a.5.5 0 0 0 .05 1h5a.5.5 0 1 0 0-1h-5a.5.5 0 0 0-.05 0zm0 3a.5.5 0 0 0 .05 1h5a.5.5 0 1 0 0-1h-5a.5.5 0 0 0-.05 0zm0 3a.5.5 0 0 0 .05 1h5a.5.5 0 1 0 0-1h-5a.5.5 0 0 0-.05 0z" color="#000" font-family="sans-serif" font-weight="400" overflow="visible" style="text-indent:0;text-align:start;line-height:normal;text-transform:none;block-progression:tb" class="colorffffff svgShape"></path>
  </g>
</svg>
