<svg xmlns="http://www.w3.org/2000/svg" xmlns:xlink="http://www.w3.org/1999/xlink" id="Gst" viewBox="0 0 96 96">
  <defs id="defs55">
    <linearGradient xlink:href="#linearGradient3892" id="linearGradient3542" x1="906.952" x2="931.379" y1="515.915" y2="546.094" gradientTransform="translate(-2777.437 -1586.04)scale(3.0757)" gradientUnits="userSpaceOnUse"></linearGradient>
    <linearGradient id="linearGradient3892">
      <stop id="stop3894" offset="0" stop-color="#fbbc05" class="stopColorffd800 svgShape"></stop>
      <stop id="stop3896" offset="1" stop-color="#ea4335" class="stopColorff6100 svgShape"></stop>
    </linearGradient>
  </defs>
  <g id="g4153" fill="#34a853" class="color000000 svgShape">
    <rect id="rect3494" width="96" height="96" fill="url(#linearGradient3542)" rx="20.288" ry="20.288"></rect>
    <path id="path7" fill="#4285f4" d="m 26.5,24 c -0.065,0 -0.130406,0.01161 -0.191406,0.03711 -0.122,0.051 -0.220485,0.148484 -0.271485,0.271484 C 26.012109,24.369594 26,24.435 26,24.5 l 0,43 c 0,2.481 2.019,4.5 4.5,4.5 l 30,0 4,0 c 2.481,0 4.5,-2.019 4.5,-4.5 l 0,-14 c 0,-0.065 -0.01211,-0.130406 -0.03711,-0.191406 -0.025,-0.062 -0.06237,-0.11611 -0.109375,-0.16211 l -2,-2 c -0.195,-0.195 -0.512032,-0.195 -0.707032,0 L 64.5,52.792969 62.853516,51.146484 c -0.195,-0.195 -0.512032,-0.195 -0.707032,0 L 61,52.292969 61,26.5 c 0,-0.065 -0.01211,-0.130406 -0.03711,-0.191406 -0.025,-0.062 -0.06237,-0.11611 -0.109375,-0.16211 l -2,-2 c -0.195,-0.195 -0.512032,-0.195 -0.707032,0 L 56.5,25.792969 54.853516,24.146484 c -0.195,-0.195 -0.512032,-0.195 -0.707032,0 L 52.5,25.792969 50.853516,24.146484 c -0.195,-0.195 -0.512032,-0.195 -0.707032,0 L 48.5,25.792969 46.853516,24.146484 c -0.195,-0.195 -0.512032,-0.195 -0.707032,0 L 44.5,25.792969 42.853516,24.146484 c -0.195,-0.195 -0.512032,-0.195 -0.707032,0 L 40.5,25.792969 38.853516,24.146484 c -0.195,-0.195 -0.512032,-0.195 -0.707032,0 L 36.5,25.792969 34.853516,24.146484 c -0.195,-0.195 -0.512032,-0.195 -0.707032,0 L 32.5,25.792969 30.853516,24.146484 c -0.195,-0.195 -0.512032,-0.195 -0.707032,0 L 28.5,25.792969 26.853516,24.146484 c -0.046,-0.046 -0.10111,-0.08338 -0.16211,-0.109375 C 26.630406,24.011609 26.565,24 26.5,24 Z m 4,1.207031 1.646484,1.646485 C 32.244484,26.951516 32.372,27 32.5,27 c 0.128,0 0.255516,-0.04948 0.353516,-0.146484 L 34.5,25.207031 36.146484,26.853516 C 36.244484,26.951516 36.372,27 36.5,27 c 0.128,0 0.255516,-0.04948 0.353516,-0.146484 L 38.5,25.207031 40.146484,26.853516 C 40.244484,26.951516 40.372,27 40.5,27 c 0.128,0 0.255516,-0.04948 0.353516,-0.146484 L 42.5,25.207031 44.146484,26.853516 C 44.244484,26.951516 44.372,27 44.5,27 c 0.128,0 0.255516,-0.04948 0.353516,-0.146484 L 46.5,25.207031 48.146484,26.853516 C 48.244484,26.951516 48.372,27 48.5,27 c 0.128,0 0.255516,-0.04948 0.353516,-0.146484 L 50.5,25.207031 52.146484,26.853516 C 52.244484,26.951516 52.372,27 52.5,27 c 0.128,0 0.255516,-0.04948 0.353516,-0.146484 L 54.5,25.207031 56.146484,26.853516 C 56.244484,26.951516 56.372,27 56.5,27 c 0.128,0 0.255516,-0.04948 0.353516,-0.146484 L 58.5,25.207031 l 1.5,1.5 L 60,67.5 c 0,1.421 0.674078,2.675 1.705078,3.5 L 60.5,71 30.5,71 C 28.57,71 27,69.43 27,67.5 l 0,-41.792969 1.146484,1.146485 C 28.244484,26.951516 28.372,27 28.5,27 c 0.128,0 0.255516,-0.04948 0.353516,-0.146484 L 30.5,25.207031 Z M 33.5,29 C 33.224,29 33,29.224 33,29.5 l 0,3 c 0,0.276 0.224,0.5 0.5,0.5 l 20,0 c 0.276,0 0.5,-0.224 0.5,-0.5 l 0,-3 C 54,29.224 53.776,29 53.5,29 l -20,0 z m 0.5,1 19,0 0,2 -19,0 0,-2 z m -4.5625,7 c -0.276,0 -0.5,0.224 -0.5,0.5 0,0.276 0.223,0.5 0.5,0.5 l 10,0 c 0.276,0 0.5,-0.224 0.5,-0.5 0,-0.276 -0.224,-0.5 -0.5,-0.5 l -10,0 z m 23,0 c -0.277,0 -0.5,0.224 -0.5,0.5 0,0.276 0.224,0.5 0.5,0.5 l 5,0 c 0.276,0 0.5,-0.224 0.5,-0.5 0,-0.276 -0.224,-0.5 -0.5,-0.5 l -5,0 z m -23,3 c -0.276,0 -0.5,0.224 -0.5,0.5 0,0.276 0.223,0.5 0.5,0.5 l 18,0 c 0.276,0 0.5,-0.224 0.5,-0.5 0,-0.276 -0.224,-0.5 -0.5,-0.5 l -18,0 z M 54.5,40 c -0.276,0 -0.5,0.224 -0.5,0.5 0,0.276 0.224,0.5 0.5,0.5 l 3,0 C 57.776,41 58,40.776 58,40.5 58,40.224 57.776,40 57.5,40 l -3,0 z m -25.0625,3 c -0.276,0 -0.5,0.224 -0.5,0.5 0,0.276 0.223,0.5 0.5,0.5 l 14,0 c 0.276,0 0.5,-0.224 0.5,-0.5 0,-0.276 -0.224,-0.5 -0.5,-0.5 l -14,0 z M 54.5,43 c -0.276,0 -0.5,0.224 -0.5,0.5 0,0.276 0.224,0.5 0.5,0.5 l 3,0 C 57.776,44 58,43.776 58,43.5 58,43.224 57.776,43 57.5,43 l -3,0 z m -25.0625,3 c -0.276,0 -0.5,0.224 -0.5,0.5 0,0.276 0.223,0.5 0.5,0.5 l 18,0 c 0.276,0 0.5,-0.224 0.5,-0.5 0,-0.276 -0.224,-0.5 -0.5,-0.5 l -18,0 z M 54.5,46 c -0.276,0 -0.5,0.224 -0.5,0.5 0,0.276 0.224,0.5 0.5,0.5 l 3,0 C 57.776,47 58,46.776 58,46.5 58,46.224 57.776,46 57.5,46 l -3,0 z m -25.0625,3 c -0.276,0 -0.5,0.224 -0.5,0.5 0,0.276 0.223,0.5 0.5,0.5 l 14,0 c 0.276,0 0.5,-0.224 0.5,-0.5 0,-0.276 -0.224,-0.5 -0.5,-0.5 l -14,0 z M 54.5,49 c -0.276,0 -0.5,0.224 -0.5,0.5 0,0.276 0.224,0.5 0.5,0.5 l 3,0 C 57.776,50 58,49.776 58,49.5 58,49.224 57.776,49 57.5,49 l -3,0 z m -25.0625,3 c -0.276,0 -0.5,0.224 -0.5,0.5 0,0.276 0.223,0.5 0.5,0.5 l 18,0 c 0.276,0 0.5,-0.224 0.5,-0.5 0,-0.276 -0.224,-0.5 -0.5,-0.5 l -18,0 z M 54.5,52 c -0.276,0 -0.5,0.224 -0.5,0.5 0,0.276 0.224,0.5 0.5,0.5 l 3,0 C 57.776,53 58,52.776 58,52.5 58,52.224 57.776,52 57.5,52 l -3,0 z m 8,0.207031 1.646484,1.646485 C 64.244484,53.951516 64.372,54 64.5,54 c 0.128,0 0.255516,-0.04948 0.353516,-0.146484 L 66.5,52.207031 l 1.5,1.5 L 68,67.5 C 68,69.43 66.43,71 64.5,71 62.57,71 61,69.43 61,67.5 l 0,-13.792969 1.5,-1.5 z M 29.4375,55 c -0.276,0 -0.5,0.224 -0.5,0.5 0,0.276 0.224,0.5 0.5,0.5 l 14,0 c 0.276,0 0.5,-0.224 0.5,-0.5 0,-0.276 -0.224,-0.5 -0.5,-0.5 l -14,0 z M 54.5,55 c -0.276,0 -0.5,0.224 -0.5,0.5 0,0.276 0.224,0.5 0.5,0.5 l 3,0 C 57.776,56 58,55.776 58,55.5 58,55.224 57.776,55 57.5,55 l -3,0 z M 37,57 c -0.276,0 -0.5,0.224 -0.5,0.5 l 0,0.484375 -1,0 c -0.276,0 -0.5,0.224 -0.5,0.5 l 0,2 c 0,0.276 0.224,0.5 0.5,0.5 l 2.5,0 0,1 -2.5,0 c -0.276,0 -0.5,0.224 -0.5,0.5 0,0.276 0.224,0.5 0.5,0.5 l 1,0 0,0.515625 c 0,0.276 0.224,0.5 0.5,0.5 0.276,0 0.5,-0.224 0.5,-0.5 l 0,-0.515625 1,0 c 0.276,0 0.5,-0.224 0.5,-0.5 l 0,-2 c 0,-0.276 -0.224,-0.5 -0.5,-0.5 l -2.5,0 0,-1 0.921875,0 C 36.948875,58.989375 36.972,59 37,59 c 0.028,0 0.05112,-0.01062 0.07813,-0.01563 l 1.421875,0 c 0.276,0 0.5,-0.224 0.5,-0.5 0,-0.276 -0.224,-0.5 -0.5,-0.5 l -1,0 L 37.5,57.5 C 37.5,57.224 37.276,57 37,57 Z m 12.5,0.984375 c -0.276,0 -0.5,0.224 -0.5,0.5 l 0,2 c 0,0.276 0.224,0.5 0.5,0.5 l 2.5,0 0,1 -2.5,0 c -0.276,0 -0.5,0.224 -0.5,0.5 0,0.276 0.224,0.5 0.5,0.5 l 3,0 c 0.276,0 0.5,-0.224 0.5,-0.5 l 0,-2 c 0,-0.276 -0.224,-0.5 -0.5,-0.5 l -2.5,0 0,-1 2.5,0 c 0.276,0 0.5,-0.224 0.5,-0.5 0,-0.276 -0.224,-0.5 -0.5,-0.5 l -3,0 z m 5,0 c -0.276,0 -0.5,0.224 -0.5,0.5 0,0.276 0.224,0.5 0.5,0.5 l 1,0 0,3.5 c 0,0.276 0.224,0.5 0.5,0.5 0.276,0 0.5,-0.224 0.5,-0.5 l 0,-3.5 1,0 c 0.276,0 0.5,-0.224 0.5,-0.5 0,-0.276 -0.224,-0.5 -0.5,-0.5 l -3,0 z m -10,0.03125 c -0.276,0 -0.5,0.224 -0.5,0.5 l 0,4 c 0,0.276 0.224,0.5 0.5,0.5 l 1.5,0 1,0 0.5,0 c 0.276,0 0.5,-0.224 0.5,-0.5 l 0,-2 c 0,-0.276 -0.224,-0.5 -0.5,-0.5 l -1,0 c -0.276,0 -0.5,0.224 -0.5,0.5 0,0.276 0.224,0.5 0.5,0.5 l 0.5,0 0,1 -1,0 -1,0 0,-3 2.5,0 c 0.276,0 0.5,-0.224 0.5,-0.5 0,-0.276 -0.224,-0.5 -0.5,-0.5 l -3,0 z M 41.5,59 C 41.224,59 41,59.224 41,59.5 l 0,0.5 -0.5,0 c -0.276,0 -0.5,0.224 -0.5,0.5 0,0.276 0.224,0.5 0.5,0.5 l 0.5,0 0,0.5 c 0,0.276 0.224,0.5 0.5,0.5 0.276,0 0.5,-0.224 0.5,-0.5 l 0,-0.5 0.5,0 C 42.776,61 43,60.776 43,60.5 43,60.224 42.776,60 42.5,60 L 42,60 42,59.5 C 42,59.224 41.776,59 41.5,59 Z m -6.0625,6 c -0.276,0 -0.5,0.224 -0.5,0.5 0,0.276 0.224,0.5 0.5,0.5 l 22,0 c 0.276,0 0.5,-0.224 0.5,-0.5 0,-0.276 -0.224,-0.5 -0.5,-0.5 l -22,0 z m 8,3 c -0.276,0 -0.5,0.224 -0.5,0.5 0,0.276 0.224,0.5 0.5,0.5 l 14,0 c 0.276,0 0.5,-0.224 0.5,-0.5 0,-0.276 -0.224,-0.5 -0.5,-0.5 l -14,0 z" class="colorffffff svgShape"></path>
  </g>
</svg>
