<?xml version="1.0" encoding="UTF-8" standalone="no"?>
<!-- Created with Inkscape (http://www.inkscape.org/) -->

<svg
   width="90mm"
   height="100mm"
   viewBox="0 0 90 100"
   version="1.1"
   id="svg8109"
   xmlns="http://www.w3.org/2000/svg"
   xmlns:svg="http://www.w3.org/2000/svg">
  <defs
     id="defs8106" />
  <g
     id="layer1">
    <g
       id="g8145"
       transform="translate(77.219745,42.151601)">
      <path
         id="path7225-7"
         style="fill:#808080;stroke:none;stroke-width:0.265;stroke-linecap:butt;stroke-linejoin:miter;stroke-miterlimit:4;stroke-dasharray:none;stroke-opacity:1"
         d="m -73.440911,-2.64064 v -36.71744 c 27.480777,0 54.961551,0 82.442331,0 v 36.71744 c 0,0 2.14132,41.54868 -41.22117,57.62353 C -75.582228,38.90804 -73.440911,-2.64064 -73.440911,-2.64064 Z" />
      <path
         id="path7225-7-8"
         style="fill:none;stroke:#000000;stroke-width:2.165;stroke-linecap:butt;stroke-linejoin:miter;stroke-miterlimit:4;stroke-dasharray:none;stroke-opacity:1"
         d="m -73.440911,-2.64064 v -36.71744 c 27.480777,0 54.961551,0 82.442331,0 v 36.71744 c 0,0 2.14132,41.54868 -41.22117,57.62353 C -75.582228,38.90804 -73.440911,-2.64064 -73.440911,-2.64064 Z" />
      <path
         id="path222-5"
         style="display:inline;fill:#445016;fill-opacity:1;stroke:none;stroke-width:0.365;stroke-linecap:butt;stroke-linejoin:miter;stroke-miterlimit:4;stroke-dasharray:none;stroke-opacity:1"
         d="m -39.11578,28.88174 h -21.335769 c 0,0 -0.13308,-48.07431 0,-53.66642 4.182437,0.89592 12.649484,7.51602 12.213474,23.91656 -0.28583,10.75157 -1.69226,15.90118 -1.60415,18.01033 2.22038,-0.009 11.447855,-0.0729 11.447855,-0.0729 0,0 -0.58349,-21.47424 -1.38541,-34.19775 -0.57349,-9.09912 7.51038,-17.49992 7.51038,-17.49992 0,0 8.13047,8.4008 7.55698,17.49992 -0.80192,12.72351 -1.38541,34.19775 -1.38541,34.19775 0,0 9.22748,0.0639 11.44786,0.0729 0.0881,-2.10915 -1.31832,-7.25876 -1.60415,-18.01033 -0.43601,-16.40054 8.03104,-23.02064 12.21348,-23.91656 0.13308,5.59211 0,53.66642 0,53.66642 h -21.33578 c -1.37459,5.18489 -5.02966,10.18657 -6.86968,12.35234 -1.84002,-2.16577 -5.49509,-7.16745 -6.86968,-12.35234 z" />
      <path
         id="path222-5-4"
         style="display:inline;fill:none;stroke:#ffffff;stroke-width:1.065;stroke-linecap:butt;stroke-linejoin:miter;stroke-miterlimit:4;stroke-dasharray:none;stroke-opacity:1"
         d="m -39.11578,28.88174 h -21.335769 c 0,0 -0.13308,-48.07431 0,-53.66642 4.182437,0.89592 12.649484,7.51602 12.213474,23.91656 -0.28583,10.75157 -1.69226,15.90118 -1.60415,18.01033 2.22038,-0.009 11.447855,-0.0729 11.447855,-0.0729 0,0 -0.58349,-21.47424 -1.38541,-34.19775 -0.57349,-9.09912 7.51038,-17.49992 7.51038,-17.49992 0,0 8.13047,8.4008 7.55698,17.49992 -0.80192,12.72351 -1.38541,34.19775 -1.38541,34.19775 0,0 9.22748,0.0639 11.44786,0.0729 0.0881,-2.10915 -1.31832,-7.25876 -1.60415,-18.01033 -0.43601,-16.40054 8.03104,-23.02064 12.21348,-23.91656 0.13308,5.59211 0,53.66642 0,53.66642 h -21.33578 c -1.37459,5.18489 -5.02966,10.18657 -6.86968,12.35234 -1.84002,-2.16577 -5.49509,-7.16745 -6.86968,-12.35234 z" />
    </g>
  </g>
</svg>
